<?xml version="1.0" encoding="UTF-8" standalone="no"?>
<svg
   viewBox="0 0 512 512"
   version="1.1"
   id="svg4"
   sodipodi:docname="circle-play-solid.svg"
   inkscape:version="1.1.1 (3bf5ae0d25, 2021-09-20)"
   xmlns:inkscape="http://www.inkscape.org/namespaces/inkscape"
   xmlns:sodipodi="http://sodipodi.sourceforge.net/DTD/sodipodi-0.dtd"
   xmlns="http://www.w3.org/2000/svg"
   xmlns:svg="http://www.w3.org/2000/svg">
  <defs
     id="defs8" />
  <sodipodi:namedview
     id="namedview6"
     pagecolor="#ffffff"
     bordercolor="#666666"
     borderopacity="1.0"
     inkscape:pageshadow="2"
     inkscape:pageopacity="0.0"
     inkscape:pagecheckerboard="0"
     showgrid="false"
     inkscape:zoom="1.6347656"
     inkscape:cx="371.6129"
     inkscape:cy="256.30585"
     inkscape:window-width="1920"
     inkscape:window-height="1021"
     inkscape:window-x="-8"
     inkscape:window-y="-8"
     inkscape:window-maximized="1"
     inkscape:current-layer="svg4" />
  <!--! Font Awesome Pro 6.2.0 by @fontawesome - https://fontawesome.com License - https://fontawesome.com/license (Commercial License) Copyright 2022 Fonticons, Inc. -->
  <path
     d="M512 256c0 141.4-114.6 256-256 256S0 397.4 0 256S114.6 0 256 0S512 114.6 512 256zM188.3 147.1c-7.6 4.2-12.3 12.3-12.3 20.9V344c0 8.7 4.7 16.7 12.3 20.9s16.8 4.1 24.3-.5l144-88c7.1-4.4 11.5-12.1 11.5-20.5s-4.4-16.1-11.5-20.5l-144-88c-7.4-4.5-16.7-4.7-24.3-.5z"
     id="path2" />
  <path
     style="fill:#1a1a1a;stroke-width:0.611708"
     d="M 244.37754,511.33857 C 190.37548,508.94357 138.90106,489.516 96.038232,455.35208 85.45518,446.91683 65.102764,426.57242 56.749575,416.07887 25.118436,376.34281 6.3039691,330.06441 1.5104139,280.20575 0.32533636,267.87954 0.32419118,244.13234 1.5080805,231.81861 6.3014819,181.96201 25.145863,135.55781 56.647423,96.038232 65.083611,85.4548 85.429151,65.10151 95.921126,56.749575 136.40183,24.525672 183.82347,5.5327656 234.5902,1.2110231 c 11.19501,-0.95302465 34.33726,-0.80747339 45.59119,0.286742 35.80706,3.4815048 70.9919,14.5430669 101.83056,32.0139329 8.75491,4.959875 25.50225,16.363176 33.94982,23.116502 10.61591,8.486786 30.97129,28.844389 39.28866,39.292926 34.55184,43.405144 54.04486,95.260694 56.03622,149.068124 2.10195,56.79584 -12.58202,108.37966 -44.08833,154.87935 -8.89,13.12063 -17.66244,23.58532 -30.70342,36.6263 -16.95756,16.95756 -31.83446,28.56195 -51.57523,40.2301 -33.90138,20.03804 -76.51133,32.87399 -114.09343,34.36985 -4.4536,0.17727 -9.88669,0.40839 -12.07355,0.51361 -2.18686,0.10521 -8.65568,-0.0162 -14.37515,-0.26989 z m -37.90152,-144.0379 c 2.91653,-0.75824 18.51274,-10.0275 77.96526,-46.33692 48.7254,-29.75805 75.23173,-46.29476 76.96859,-48.01899 7.93309,-7.87541 9.07609,-21.53842 2.59041,-30.96502 -1.03092,-1.4984 -3.04305,-3.66273 -4.47139,-4.80963 -3.17791,-2.55173 -146.07938,-89.88128 -150.16174,-91.76643 -2.41829,-1.11671 -4.01099,-1.34633 -9.33848,-1.34633 -5.79381,0 -6.76399,0.16748 -9.9049,1.70989 -7.12083,3.49682 -12.34007,10.05078 -13.88523,17.43611 -0.87672,4.19038 -0.96332,180.74154 -0.0909,185.3417 2.62618,13.84777 16.41247,22.37345 30.3284,18.75562 z"
     id="path65" />
</svg>
