<?xml version="1.0" encoding="UTF-8" standalone="no"?>
<svg
   viewBox="0 0 384 512"
   version="1.1"
   id="svg4"
   sodipodi:docname="play-solid.svg"
   inkscape:version="1.1.1 (3bf5ae0d25, 2021-09-20)"
   xmlns:inkscape="http://www.inkscape.org/namespaces/inkscape"
   xmlns:sodipodi="http://sodipodi.sourceforge.net/DTD/sodipodi-0.dtd"
   xmlns="http://www.w3.org/2000/svg"
   xmlns:svg="http://www.w3.org/2000/svg">
  <defs
     id="defs8" />
  <sodipodi:namedview
     id="namedview6"
     pagecolor="#ffffff"
     bordercolor="#666666"
     borderopacity="1.0"
     inkscape:pageshadow="2"
     inkscape:pageopacity="0.0"
     inkscape:pagecheckerboard="0"
     showgrid="false"
     inkscape:zoom="1.6347656"
     inkscape:cx="191.77061"
     inkscape:cy="207.36918"
     inkscape:window-width="1920"
     inkscape:window-height="1021"
     inkscape:window-x="-8"
     inkscape:window-y="-8"
     inkscape:window-maximized="1"
     inkscape:current-layer="svg4" />
  <!--! Font Awesome Pro 6.2.0 by @fontawesome - https://fontawesome.com License - https://fontawesome.com/license (Commercial License) Copyright 2022 Fonticons, Inc. -->
  <path
     d="M73 39c-14.8-9.1-33.4-9.4-48.5-.9S0 62.6 0 80V432c0 17.4 9.4 33.4 24.5 41.9s33.7 8.1 48.5-.9L361 297c14.3-8.7 23-24.2 23-41s-8.7-32.2-23-41L73 39z"
     id="path2" />
  <path
     style="fill:#1a1a1a;stroke-width:0.611708"
     d="M 37.957882,478.60791 C 20.620201,474.73284 7.0729717,461.82753 2.0186387,444.3716 L 0.61170848,439.51254 V 256 72.487455 L 2.0186387,67.628402 C 8.1229247,46.546297 26.572075,32.429121 48.019116,32.429121 c 7.04133,0 14.373259,1.628206 20.098459,4.463277 5.714446,2.829745 293.273045,178.593502 297.378245,181.765792 7.60232,5.87469 14.39237,16.47104 16.87272,26.33106 1.44616,5.74883 1.44616,16.27267 0,22.0215 -2.48035,9.86002 -9.2704,20.45637 -16.87272,26.33106 -3.81189,2.94564 -291.401394,178.77759 -296.645804,181.36896 -6.446422,3.18532 -11.397476,4.36967 -19.301629,4.61718 -5.151707,0.16132 -8.60777,-0.0534 -11.590505,-0.72004 z"
     id="path83" />
  <path
     style="fill:#1a1a1a;stroke-width:0.611708"
     d="M 36.012914,477.79409 C 20.424765,473.5758 8.517027,462.13559 2.9713773,446.04983 L 0.92850399,440.12425 0.92303336,256.09023 0.91756272,72.056206 2.7869273,66.4606 C 5.9856642,56.885758 10.889939,49.512676 17.962006,43.6464 22.324572,40.027655 31.126937,35.473831 36.0908,34.267633 c 1.682199,-0.408767 3.471446,-0.884603 3.976106,-1.057414 2.327886,-0.797136 15.242527,-0.140744 19.709641,1.001751 6.019949,1.539644 6.195124,1.633344 30.058612,16.07838 11.149801,6.749194 20.616451,12.279487 21.037001,12.28954 0.42055,0.01005 0.76464,0.20773 0.76464,0.439283 0,0.576315 9.29377,6.291052 10.24612,6.300335 0.42054,0.0041 0.76463,0.196905 0.76463,0.428458 0,0.576316 9.29377,6.291053 10.24612,6.300335 0.42055,0.0041 0.76463,0.199064 0.76463,0.433255 0,0.585132 9.81621,6.442138 10.47824,6.252016 0.29289,-0.08411 0.53252,0.08456 0.53252,0.374826 0,0.654934 9.7453,6.564452 10.47823,6.353968 0.29289,-0.08411 0.53252,0.09618 0.53252,0.400645 0,0.63928 9.86291,6.552015 10.55197,6.325823 0.25233,-0.08283 0.45878,0.0985 0.45878,0.402969 0,0.639279 9.86291,6.552017 10.55197,6.325827 0.25233,-0.0828 0.45878,0.0985 0.45878,0.40297 0,0.63927 9.86292,6.55201 10.55198,6.32582 0.25233,-0.0828 0.45878,0.0985 0.45878,0.40297 0,0.59061 9.11024,6.12635 10.0248,6.09145 0.29882,-0.0114 0.71172,0.2497 0.91756,0.5802 0.55341,0.88861 10.46585,6.93623 10.4768,6.39195 0.005,-0.25599 0.2116,-0.14972 0.45878,0.23617 0.61857,0.96568 10.54034,7.07054 10.55197,6.49262 0.005,-0.25599 0.2116,-0.14971 0.45878,0.23617 0.61857,0.96568 10.54035,7.07054 10.55197,6.49262 0.005,-0.25598 0.21161,-0.14971 0.45879,0.23617 0.70026,1.09322 10.36291,6.92054 10.78143,6.50203 0.20508,-0.20509 0.37288,-0.0779 0.37288,0.28263 0,0.70901 9.79564,6.67606 10.55197,6.42778 0.25233,-0.0828 0.45878,0.0869 0.45878,0.37715 0,0.65494 9.74531,6.56445 10.47824,6.35397 0.29289,-0.0841 0.53252,0.0846 0.53252,0.37482 0,0.65494 9.7453,6.56445 10.47823,6.35397 0.29289,-0.0841 0.53252,0.0846 0.53252,0.37483 0,0.65493 9.7453,6.56445 10.47823,6.35397 0.29289,-0.0841 0.53252,0.0824 0.53252,0.37002 0,0.64759 9.19331,6.39203 10.24612,6.40229 0.42055,0.004 0.76463,0.1969 0.76463,0.42846 0,0.57632 9.29378,6.29105 10.24612,6.30033 0.42055,0.004 0.76464,0.19691 0.76464,0.42846 0,0.57632 9.29377,6.29105 10.24611,6.30034 0.42055,0.004 0.76464,0.20361 0.76464,0.44335 0,0.44699 43.73147,27.60173 44.33327,27.52843 0.52877,-0.0644 7.58207,7.8919 9.61294,10.84365 1.01342,1.47297 2.87792,4.92798 4.14333,7.67781 3.0223,6.56771 3.2052,7.07274 3.47216,9.58749 0.12501,1.17754 0.38857,2.82915 0.5857,3.67025 0.19713,0.8411 0.35841,3.45615 0.35841,5.81123 0,2.35508 -0.16128,4.97013 -0.35841,5.81123 -0.19713,0.8411 -0.46473,2.49271 -0.59468,3.67025 -0.7115,6.44757 -7.84674,19.05561 -14.2497,25.17938 -2.08035,1.98965 -13.76777,9.39135 -48.06766,30.44151 -5.63536,3.45847 -10.24611,6.48907 -10.24611,6.73466 0,0.24558 -0.34409,0.45076 -0.76464,0.45593 -1.0042,0.0124 -10.24612,5.65471 -10.24612,6.25544 0,0.25517 -0.34408,0.4673 -0.76463,0.4714 -0.95235,0.009 -10.24612,5.72402 -10.24612,6.30033 0,0.23156 -0.34408,0.42436 -0.76463,0.42846 -1.05282,0.0103 -10.24612,5.7547 -10.24612,6.40229 0,0.28762 -0.23963,0.45414 -0.53252,0.37003 -0.73293,-0.21048 -10.47823,5.69903 -10.47823,6.35397 0,0.29026 -0.23963,0.45893 -0.53252,0.37482 -0.73293,-0.21048 -10.47824,5.69903 -10.47824,6.35397 0,0.29026 -0.23963,0.45893 -0.53251,0.37482 -0.73293,-0.21048 -10.47824,5.69904 -10.47824,6.35397 0,0.29027 -0.20645,0.45998 -0.45878,0.37715 -0.75634,-0.24828 -10.55197,5.71877 -10.55197,6.42778 0,0.36053 -0.1678,0.48772 -0.37289,0.28263 -0.41851,-0.41851 -10.08116,5.40882 -10.78143,6.50203 -0.24718,0.38588 -0.45363,0.49216 -0.45878,0.23617 -0.0109,-0.54429 -9.92339,5.50334 -10.4768,6.39194 -0.20584,0.33051 -0.48111,0.51091 -0.61171,0.40089 -0.40479,-0.34099 -10.33065,5.68406 -10.33065,6.27077 0,0.30446 -0.20645,0.4858 -0.45878,0.40297 -0.68906,-0.2262 -10.55197,5.68654 -10.55197,6.32582 0,0.30447 -0.20645,0.4858 -0.45878,0.40297 -0.68906,-0.22619 -10.55198,5.68655 -10.55198,6.32582 0,0.30447 -0.20645,0.4858 -0.45878,0.40297 -0.68906,-0.22619 -10.55197,5.68655 -10.55197,6.32583 0,0.30446 -0.23963,0.48475 -0.53252,0.40064 -0.73293,-0.21048 -10.47823,5.69903 -10.47823,6.35397 0,0.29026 -0.23963,0.45893 -0.53252,0.37482 -0.73293,-0.21048 -10.47823,5.69904 -10.47823,6.35397 0,0.29027 -0.23963,0.45894 -0.53252,0.37483 -0.73293,-0.21049 -10.47824,5.69903 -10.47824,6.35397 0,0.29026 -0.23963,0.45893 -0.53251,0.37482 -0.66203,-0.19012 -10.47824,5.66689 -10.47824,6.25202 0,0.23419 -0.34409,0.42915 -0.76463,0.43325 -0.95235,0.009 -10.24612,5.72402 -10.24612,6.30034 0,0.23155 -0.34409,0.43142 -0.76464,0.44414 -0.42055,0.0127 -10.53668,5.91972 -22.480284,13.12665 -25.913201,15.63635 -26.515856,15.88574 -39.149343,16.20097 -7.336219,0.18305 -9.623575,0.0173 -13.229619,-0.9585 z"
     id="path159" />
</svg>
